<svg xmlns="http://www.w3.org/2000/svg" width="64" height="64" fill="none" class="header__logo" viewBox="0 0 64 64">
	<style>
		.logo__circle { fill: #000000; }
		@media (prefers-color-scheme: dark) {
			.logo__circle { fill: #ffffff; }
		}
	</style>
	<path class="logo__circle" fill="red" d="M52.07 23.012c-2.548.74-12.56.09-14.051 4.09-2.61 6.997 2.04 20.316 3.94 26.964.983 3.43-4.471 4.663-4.991 1.092-1.005-6.912-3.343-11.683-4.187-12.608-.372-.409-.72-.409-1.086.009-.842.953-3.18 5.708-4.182 12.6-.52 3.57-5.972 2.337-4.992-1.093 1.903-6.648 6.55-19.967 3.942-26.964-1.49-4-11.504-3.35-14.05-4.09-2.694-.782-1.72-4.873 1.342-4.03 5.554 1.526 18.486 1.509 18.486 1.509s12.931.017 18.485-1.51c3.063-.842 4.038 3.25 1.344 4.031zM32.24 8.342a5.264 5.264 0 0 1 5.265 5.264 5.264 5.264 0 1 1-10.53 0 5.264 5.264 0 0 1 5.266-5.264zm0-7.517C14.569.825.242 15.15.242 32.825c0 17.673 14.327 32 32 32 17.674 0 32-14.327 32-32 0-17.674-14.326-32-32-32"/>
</svg>
